<?xml version="1.0" encoding="UTF-8"?>
<svg id="Layer_1" data-name="Layer 1" xmlns="http://www.w3.org/2000/svg" viewBox="0 0 3000 900.56">
  <defs>
    <style>
      .cls-1 {
        fill: #039;
      }

      .cls-2 {
        fill: #6cf;
      }

      .cls-3 {
        fill: #0074ff;
      }

      .cls-4 {
        fill: #04c;
      }
    </style>
  </defs>
  <path class="cls-3" d="M1019.6966,336.9125c53.9435,0,93.8721,37.6273,93.8721,91.4192,0,53.2618-39.9286,90.8885-93.8721,90.8885h-121.5671v-182.3077h121.5671ZM943.0828,379.3097v97.5134h76.6138c28.0298,0,48.9188-18.5486,48.9188-48.4913,0-30.2081-20.889-49.0221-48.9188-49.0221h-76.6138Z"/>
  <path class="cls-3" d="M1140.5202,336.9125h146.8436c34.1125,0,62.9349,14.0441,62.9349,46.6368,0,27.5581-22.7409,39.4824-39.6644,39.4824,31.731,3.4454,50.241,22.2588,50.241,48.2266,0,29.9427-23.5335,47.9618-65.5781,47.9618h-154.777v-182.3077ZM1185.4735,379.3097v27.2934h97.131c12.4284,0,18.2458-4.2397,18.2458-13.514,0-8.7448-5.8173-13.7794-18.2458-13.7794h-97.131ZM1185.4735,443.7008v33.1222h104.799c12.1642,0,20.8902-4.2397,20.8902-16.4281,0-11.3942-8.726-16.6941-20.8902-16.6941h-104.799Z"/>
  <path class="cls-3" d="M1426.2753,336.9125v139.9105h138.6497v42.3971h-183.603v-182.3077h44.9533Z"/>
  <path class="cls-3" d="M1710.6197,336.9125v182.3077h-35.9631v-182.3077h35.9631Z"/>
  <path class="cls-3" d="M1816.919,448.7348l-23.2693-6.359c-28.5594-7.6852-55.0015-18.5492-55.0015-53.5265,0-35.508,30.9384-55.1163,68.2226-55.1163,32.5249,0,54.2077,9.8038,65.8435,16.9589v38.6869c-16.1309-10.5993-43.1027-20.9332-66.9015-20.9332-18.2458,0-28.5582,6.6243-28.5582,17.7537,0,12.9839,12.9569,17.2236,32.5249,22.7883l19.568,5.5647c28.8224,8.4794,55.0015,18.2838,55.0015,54.322,0,34.4472-29.352,52.9958-69.0164,52.9958-31.4668,0-57.646-10.3339-70.867-19.3441v-37.3619c17.452,12.4544,48.1262,23.3178,72.7177,23.3178,21.9482,0,30.1458-6.6237,30.1458-17.2236,0-12.7191-11.6358-16.9589-30.41-22.5236Z"/>
  <path class="cls-3" d="M1895.4516,336.9125h150.9896v33.9177h-57.646v148.39h-35.9619v-148.39h-57.3818v-33.9177Z"/>
  <path class="cls-3" d="M2136.3431,448.7348l-23.2693-6.359c-28.5594-7.6852-55.0015-18.5492-55.0015-53.5265,0-35.508,30.9384-55.1163,68.2226-55.1163,32.5249,0,54.2077,9.8038,65.8435,16.9589v38.6869c-16.1309-10.5993-43.1027-20.9332-66.9015-20.9332-18.2458,0-28.5582,6.6243-28.5582,17.7537,0,12.9839,12.9569,17.2236,32.5249,22.7883l19.568,5.5647c28.8224,8.4794,55.0015,18.2838,55.0015,54.322,0,34.4472-29.352,52.9958-69.0164,52.9958-31.4668,0-57.646-10.3339-70.867-19.3441v-37.3619c17.452,12.4544,48.1262,23.3178,72.7177,23.3178,21.9482,0,30.1458-6.6237,30.1458-17.2236,0-12.7191-11.6358-16.9589-30.41-22.5236Z"/>
  <path class="cls-3" d="M2378.289,336.9125v182.3077h-35.9631v-182.3077h35.9631Z"/>
  <path class="cls-3" d="M2534.8317,458.5392v-121.6267h35.9619v182.3077h-34.1113l-87.2622-119.7722v119.7722h-35.9619v-182.3077h35.9619l85.4115,121.6267Z"/>
  <path class="cls-3" d="M2599.3459,428.3317c0-55.3816,41.2508-94.0692,96.5177-94.0692,26.9717,0,44.1595,6.6249,59.2324,15.3691v37.3625c-12.9581-9.2743-32.2606-18.814-57.1175-18.814-35.4335,0-60.5546,23.8485-60.5546,60.1515s25.1211,59.8855,60.5546,59.8855c24.8569,0,44.1595-9.2737,57.1175-18.5486v37.0972c-15.0729,8.7442-32.2606,15.6339-59.2324,15.6339-55.2669,0-96.5177-38.6869-96.5177-94.068Z"/>
  <path class="cls-3" d="M2771.4875,500.6716c0-12.1896,9.784-22.2588,21.9482-22.2588s22.2113,10.0692,22.2113,22.2588-10.0482,21.9928-22.2113,21.9928-21.9482-9.8032-21.9482-21.9928Z"/>
  <g>
    <path class="cls-1" d="M570.0182,631.0273l-.0537-.0539c15.314-15.343,24.7856-36.5436,24.7856-59.9593-.008-7.4047-.9762-20.0667-7.1589-34.1837-5.3987-12.327-12.6128-20.8302-17.573-25.8295l-119.7764-120.0263,59.942-59.9593c15.314-15.3461,36.4675-24.8374,59.8344-24.8374s44.5205,9.4913,59.8345,24.8374l59.8882,60.0132c15.3141,15.343,24.7857,36.5437,24.7857,59.9593s-9.4716,44.6163-24.7857,59.9593l-119.7227,120.0803Z"/>
    <path class="cls-4" d="M510.0762,690.9865c-15.3141,15.346-36.4676,24.8374-59.8345,24.8374s-44.5204-9.4914-59.8345-24.8374l-119.8302-119.9725.0538-.0539c15.3141,15.346,36.4676,24.8374,59.8345,24.8374s44.5204-9.4914,59.8345-24.8374l119.8302-119.9725,59.8345,60.0671c15.3141,15.343,24.7857,36.5437,24.7857,59.9593s-9.4716,44.6163-24.7857,59.9593l-59.8882,60.0132Z"/>
    <path class="cls-2" d="M330.519,390.9206c-15.3111-15.343-24.7827-36.5437-24.7827-59.9593s9.4716-44.6163,24.7827-59.9593l59.8882-60.0132c15.3141-15.346,36.4676-24.8374,59.8345-24.8374s44.5204,9.4914,59.8345,24.8374l119.8302,119.9725-.0538.0539c-15.3141-15.346-36.4676-24.8374-59.8345-24.8374s-44.5204,9.4914-59.8345,24.8374l-119.8302,119.9725-59.8345-60.0671Z"/>
    <path class="cls-3" d="M210.7425,510.947c-15.3111-15.343-24.7827-36.5437-24.7827-59.9593s9.4716-44.6163,24.7827-59.9593l119.7227-120.0802.0538.0539c-15.3111,15.343-24.7827,36.5437-24.7827,59.9593s9.4716,44.6163,24.7827,59.9593l119.7227,120.0802-59.942,59.9593c-15.3141,15.346-36.4676,24.8374-59.8345,24.8374s-44.5204-9.4914-59.8345-24.8374l-59.8882-60.0132Z"/>
  </g>
  <g>
    <path class="cls-1" d="M570.0182,631.0273l-.0537-.0539c15.314-15.343,24.7856-36.5436,24.7856-59.9593-.008-7.4047-.9762-20.0667-7.1589-34.1837-5.3987-12.327-12.6128-20.8302-17.573-25.8295l-119.7764-120.0263,59.942-59.9593c15.314-15.3461,36.4675-24.8374,59.8344-24.8374s44.5205,9.4913,59.8345,24.8374l59.8882,60.0132c15.3141,15.343,24.7857,36.5437,24.7857,59.9593s-9.4716,44.6163-24.7857,59.9593l-119.7227,120.0803Z"/>
    <path class="cls-4" d="M510.0762,690.9865c-15.3141,15.346-36.4676,24.8374-59.8345,24.8374s-44.5204-9.4914-59.8345-24.8374l-119.8302-119.9725.0538-.0539c15.3141,15.346,36.4676,24.8374,59.8345,24.8374s44.5204-9.4914,59.8345-24.8374l119.8302-119.9725,59.8345,60.0671c15.3141,15.343,24.7857,36.5437,24.7857,59.9593s-9.4716,44.6163-24.7857,59.9593l-59.8882,60.0132Z"/>
    <path class="cls-2" d="M330.519,390.9206c-15.3111-15.343-24.7827-36.5437-24.7827-59.9593s9.4716-44.6163,24.7827-59.9593l59.8882-60.0132c15.3141-15.346,36.4676-24.8374,59.8345-24.8374s44.5204,9.4914,59.8345,24.8374l119.8302,119.9725-.0538.0539c-15.3141-15.346-36.4676-24.8374-59.8345-24.8374s-44.5204,9.4914-59.8345,24.8374l-119.8302,119.9725-59.8345-60.0671Z"/>
    <path class="cls-3" d="M210.7425,510.947c-15.3111-15.343-24.7827-36.5437-24.7827-59.9593s9.4716-44.6163,24.7827-59.9593l119.7227-120.0802.0538.0539c-15.3111,15.343-24.7827,36.5437-24.7827,59.9593s9.4716,44.6163,24.7827,59.9593l119.7227,120.0802-59.942,59.9593c-15.3141,15.346-36.4676,24.8374-59.8345,24.8374s-44.5204-9.4914-59.8345-24.8374l-59.8882-60.0132Z"/>
  </g>
</svg>