<?xml version="1.0" encoding="UTF-8"?>
<svg id="Layer_1" data-name="Layer 1" xmlns="http://www.w3.org/2000/svg" viewBox="0 0 402.601 120">
  <defs>
    <style>
      .cls-1 {
        fill: #e60012;
      }
    </style>
  </defs>
  <path id="path1626" class="cls-1" d="M150.127,67.575L171.194,2.005h-24.657l-12.44,38.846-.155-1.451-.071-1.455-.218-1.367-.164-1.451-.31-1.38-.306-1.38-.377-1.367-.382-1.367-.466-1.384-.44-1.296-.617-1.367-.533-1.292-.696-1.233-.684-1.296-.772-1.309-.755-1.216-1.611-2.214-1.736-2.063-1.845-1.892-2.055-1.85-2.059-1.682-2.214-1.527-2.365-1.367-2.454-1.275-2.521-1.162-2.588-.998-2.672-.851-2.735-.734-2.911-.545-2.898-.524-2.974-.315-2.978-.142-3.137-.097-3.125.097-3.141.214-3.196.373-3.204.466-3.2.625-3.28.751-3.204.914-3.284,1.069-3.28,1.132-3.217,1.388-3.28,1.447-3.217,1.606-3.192,1.757-3.137,1.833-3.12,2.055-3.057,2.131-2.907,2.219-2.81,2.286-2.68,2.382-2.596,2.42-2.441,2.542-2.361,2.588-2.139,2.672-2.068,2.672-1.984,2.68-1.749,2.814-1.673,2.768-1.531,2.81-1.367,2.898-1.304,2.835-1.078,2.894-.977,2.818-.851,2.898-.604,2.898-.528,2.831-.373,2.898-.176,2.831-.067,2.747.067,2.76.327,2.739.44,2.655.533,2.688.759,2.584,1.002,2.445,1.069,2.529,1.292,2.374,1.447,2.286,1.535,2.139,1.661,1.98,1.774,1.896,1.904,1.753,1.988,1.615,2.059,1.539,2.21,1.371,2.29,1.283,2.378,1.141,2.433.998,2.588.914,2.6.768,2.659.604,2.764.541,2.739.461,2.907.239,2.902.147h2.902l2.969-.088,3.074-.226,3.041-.298,3.053-.537,3.049-.528,3.137-.768,3.125-.856,3.053-.986,3.129-1.065,3.133-1.3,3.041-1.279,3.053-1.539,3.053-1.594,3.062-1.762v-4.882l-2.6,1.371-2.529,1.22-2.592,1.145-2.6,1.053-2.659.914-2.584.851-2.596.768-2.605.617-2.596.524-2.588.398-2.525.377-2.6.147-2.508.151h-2.445l-2.525-.071-2.361-.226-2.437-.319-2.298-.373-2.286-.466-2.214-.6-2.206-.772-2.147-.755-2.047-.935-1.988-.986-1.921-1.128-1.82-1.158-1.841-1.292-1.669-1.46-1.615-1.522-1.455-1.602-1.439-1.682-1.3-1.833-1.3-1.992-1.069-2.11-.986-2.156-.843-2.219-.679-2.286-.537-2.307-.394-2.349-.214-2.365-.151-2.454v-2.441l.151-2.428.289-2.533.47-2.437.533-2.529.688-2.521.776-2.525.981-2.424.986-2.516,1.225-2.462,1.3-2.433,1.367-2.441,1.602-2.382,1.615-2.349,1.753-2.286,1.908-2.29,1.988-2.223,2.122-2.219,2.21-2.135,2.29-2.051,2.441-1.98,2.529-1.913,2.596-1.833,2.663-1.757,2.747-1.602,2.756-1.535,2.827-1.376,2.751-1.216,2.797-1.153,2.844-.969,2.823-.935,2.827-.759,2.831-.692,2.743-.453,2.823-.445,2.747-.31,2.743-.155h2.68l2.663.063,2.596.155,2.592.31,2.529.457,2.424.533,2.449.705,2.29.751,2.303.919,2.206.986,2.143,1.162,1.984,1.204,1.904,1.376,1.908,1.531,1.678,1.598,1.686,1.669,1.531,1.841,1.355,1.996,1.149,1.753.99,1.753.856,1.757.747,1.908.617,1.829.524,1.904.386,1.996.377,1.98.235,2.051.084,2.076.08,2.135-.08,2.139-.155,2.214-.235,2.202-.306,2.214-.386,2.29-.524,2.454-.696,2.428-.759,2.378-.843,2.282-.91,2.227-1.078,2.202-1.137,2.143-1.225,2.152-1.363,2.043-1.455,2.072-1.522,1.98-1.682,1.98-1.837,1.9-1.896,1.921-1.996,1.837-2.139,1.816.998.239.994.159,1.007.134,1.049.164,1.153.164,1.145.147h3.963l1.598-.08,1.682-.155,1.602-.315,1.149-.218,1.216-.239,1.149-.293,1.137-.386,1.082-.377,1.137-.47,1.065-.445,1.074-.545,1.065-.528.998-.533.986-.612.998-.679.994-.621.906-.696.927-.747.919-.768.826-.768.851-.83.83-.847.78-.835.751-.919.763-.919.679-.914.612-.986.705-.998.524-1.002.6-.981.541-1.065.466-1.078.449-1.057.457-1.145.385-1.066Z"/>
  <path id="path1630" d="M183.702,1.828l-28.531,89.864h24.648l11.139-35.283.154-.221v-.154l.535-1.683.467-1.051.602-1.069.602-1.001.7-.995.682-.928.829-.829.922-.774.922-.743.922-.688,1.063-.62,1.063-.448,1.075-.467,1.137-.381,1.223-.301,1.235-.215,1.223-.08.596.08.541.135.528.148.535.233.473.295.436.313.473.301.362.387.381.461.326.381.289.535.24.461.16.528.148.534.08.534v.541l-.08,1.075-.233.989-12.969,40.002h24.827l14.628-45.58.24-.682.221-.694.141-.762.086-.768.221-.848.172-.909.055-.977.086-.922-.086-1.45-.227-1.456-.307-1.284-.448-1.309-.608-1.223-.688-1.143-.829-1.143-.934-.977-.915-.94-1.063-.829-1.137-.7-1.223-.676-1.296-.455-1.302-.381-1.37-.313-1.456-.154h-.688l-.602-.154h-.86l-1.892.074-1.837.154-1.745.227-1.843.319-1.739.369-1.702.541-1.665.516-1.671.7-1.616.762-1.542.768-1.517.909-1.438.928-1.456,1.063-1.296,1.075-1.284,1.216-1.241,1.216L208.369,1.828h-24.667ZM77.392,24.523l-1.61.049-1.665.092-1.61.141-1.604.227-1.603.16-1.597.319-1.45.295-1.468.301-1.431.461-1.382.461-1.296.467-1.302.528-1.29.522-1.229.694-1.223.62-1.13.682-1.149.768-1.149.75-1.069.768-.983.836-1.069.854-.934.909-.977.829-.915.928-.836.983-.934,1.075-.903,1.137-.915,1.223-.915,1.382-.922,1.45,23.358,2.525.983-1.37.989-1.235,1.081-.989.989-.842.768-.473.762-.528,1.001-.522,1.137-.473,1.216-.356,1.229-.313,1.21-.215,1.309-.172h1.37l1.284.08.774.092.762.215.756.141.848.319.842.307.836.375.842.375.768.375.068.774.08.762-.08.768-.068.75-.154.786-.227.682-.319.688-.307.694-2.353.817-2.371.713-2.304.596-2.279.528-1.284.301-1.677.473-2.064.455-2.371.461-1.216.301-1.223.221-1.376.24-1.456.301-1.517.24-1.524.289-1.69.313-1.671.301-2.98.608-2.746.688-2.58.768-2.378.829-2.144.922-1.978,1.001-1.831.995-1.616,1.137-1.364,1.223-1.284,1.229-1.247,1.29-1.13,1.376-.461.762-.534.774-.375.756-.467.842-.387.897-.375.872-.313.989-.289.995-.252.965-.129.928-.154.915-.086.922v.829l.086.836.068.842.148.836.227.768.233.762.227.78.319.743.381.713.356.657.461.621.467.7.534.614.547.596.59.614.694.535.694.541.682.448.842.479.829.356.934.381.989.295,1.143.252,1.143.233,1.302.135,1.45.16,1.524.074h3.735l2.058-.074,2.132-.233,2.064-.381,1.997-.393,1.978-.516,1.892-.627,1.782-.682,1.063-.369.977-.479,1.081-.528,1.143-.608,1.683-.909,1.671-1.008,1.671-1.124,1.696-1.376-.233.743-.148.7-.086.676v1.997l.233,1.229.16.534.215.522.227.541.307.541v.148h23.807l-.221-.547-.148-.59-.135-.707-.092-.676-.068-.762.068-.756.092-.774.221-.768,2.126-6.795,1.905-6.015,1.769-5.425,1.517-4.743,1.376-4.196,1.149-3.668,1.057-3.195.86-2.74.227-.786.129-.682.16-.756.08-.78.074-1.284v-.842l-.074-1.591-.24-1.616-.295-1.53-.535-1.431-.602-1.395-.786-1.37-.829-1.223-.983-1.137-1.063-1.143-1.149-.928-1.229-.915-1.29-.75-1.382-.621-1.45-.528-1.518-.381-1.61-.301-1.536-.246-1.745-.227-1.905-.221-1.997-.166-2.046-.141-2.144-.092-2.218-.049h-5.567ZM368.412,24.523l-1.597.049-1.69.092-1.597.141-1.61.166-1.604.221-1.591.319-1.524.295-1.376.387-1.456.375-1.364.461-1.29.467-1.401.528-1.21.522-1.216.614-1.223.7-1.143.682-1.149.688-1.155.756-1.044.774-1.02.829-1.044.836-.989.934-.928.842-.922.903-.915,1.063-.909,1.075-.909,1.137-.842,1.223-.915,1.382-.934,1.45,23.297,2.525,1.069-1.37.989-1.235.977-.989,1.081-.842.67-.473.786-.528,1.063-.522,1.13-.473,1.149-.356,1.223-.313,1.302-.215,1.296-.172h1.296l1.37.08,1.456.307,1.671.461.86.307.823.307.842.362.762.393.092.762v1.604l-.092.75-.153.786-.233.682-.301.688-.301.694-2.439.817-2.292.713-2.292.596-2.285.528-1.382.301-1.671.473-1.984.455-2.365.461-1.223.301-1.29.221-1.382.24-1.376.301-1.536.24-1.603.289-1.591.313-1.677.301-2.986.608-2.814.688-2.525.768-2.359.829-2.212.922-2.003,1.001-1.733.995-1.61,1.137-1.456,1.223-1.296,1.229-1.143,1.29-1.155,1.376-.528.762-.448.774-.473.756-.369.842-.387.897-.393.872-.362.989-.326.995-.148.965-.221.928-.08.915-.086.922v.829l.086.836.08.842.153.836.141.768.24.762.313.78.307.743.375.713.381.657.381.621.455.7.614.614.522.596.627.614.602.535.7.541.762.448.743.479.94.356.897.381.983.295,1.075.252,1.229.233,1.296.135,1.45.16,1.45.074h3.735l2.138-.074,2.064-.233,2.058-.381,2.07-.393,1.898-.516,1.917-.627,1.825-.682,1.075-.369.989-.479,1.075-.528,1.143-.608,1.591-.909,1.769-1.008,1.665-1.124,1.689-1.376-.227.743-.16.7-.074.676-.086.774.086,1.223.233,1.229.148.534.24.522.221.541.307.541v.148h23.813l-.221-.547-.233-.682-.092-.676-.153-.75v-.768l.086-.774.068-.7.178-.682,2.199-6.795,1.905-6.015,1.696-5.425,1.524-4.743,1.284-4.196,1.149-3.668.989-3.195.915-2.74.387-1.468.295-1.536.074-1.284.08-.842-.08-1.591-.215-1.616-.393-1.53-.455-1.431-.608-1.395-.762-1.37-.836-1.223-.995-1.137-1.081-1.143-1.13-.928-1.223-.915-1.309-.75-1.438-.621-1.45-.528-1.45-.381-1.61-.301-1.603-.246-1.751-.227-1.825-.221-1.991-.166-2.07-.141-2.132-.092-2.212-.049h-5.572ZM255.983,24.966l-14.726,45.666-.252.756-.129.774-.148.682-.086.756-.227.909-.148.915-.148.842v.915l.08,1.456.215,1.382.313,1.37.461,1.296.528,1.204.688,1.223.836,1.087.829.983.995.922,1.075.836,1.137.768,1.235.602,1.296.473,1.296.356,1.376.313,1.431.092.627.148h3.44l1.819-.148,1.757-.227,1.751-.393,1.763-.387,1.683-.448,1.677-.627,1.671-.59,1.61-.768,1.53-.756,1.524-.922,1.524-.922,1.37-1.008,1.388-1.044,1.37-1.161,1.216-1.216-2.832,8.927h24.433l21.128-65.037h-24.796l-11.372,35.351-.141.455-.467,1.536-.467,1.124-.516,1.087-.608.989-.707.983-.75.928-.854.829-.823.854-.922.682-.989.688-1.081.614-1.069.442-1.143.479-1.137.362-1.155.313-1.216.16-1.278.141-.553-.092-.528-.148-.541-.154-.535-.221-.455-.209-.455-.326-.387-.307-.393-.356-.375-.479-.295-.393-.227-.516-.227-.461-.221-.534-.086-.621-.086-.534-.068-.602.153-.995.227-1.001,12.81-40.069h-24.649ZM81.36,59.77l-1.149,3.907-.381,1.057-.455,1.008-.461.983-.448.909-.559.928-.516.842-.614.823-.614.707-.608.688-.602.682-.774.59-.762.7-.75.62-.915.528-.989.528-1.001.541-.762.375-.768.307-.836.313-.854.227-.829.221-.836.16-1.763.301-1.671.154h-.922l-.922-.08-.762-.154-.676-.141-.608-.24-.547-.301-.448-.461-.534-.528-.307-.467-.307-.528-.227-.541-.154-.608-.08-.663v-.621l.16-.7.233-.756.221-.602.369-.614.387-.541.393-.621.534-.534.522-.534.547-.448.596-.461.688-.381.854-.455.989-.381,1.057-.473,2.605-.836,3.127-.915.768-.227.915-.221,1.45-.307,1.456-.369,1.425-.405,1.468-.301,1.444-.375,1.37-.467,1.468-.381,1.364-.461ZM372.381,59.77l-1.143,3.907-.535,1.456-.608,1.431-.78,1.376-.817,1.309-.94,1.229-.977,1.143-1.155,1.063-1.143.989-1.302.836-1.284.842-1.382.688-1.505.621-1.462.448-1.616.387-1.597.295-1.683.166h-1.825l-.756-.166-.688-.227-.608-.227-.541-.381-.528-.461-.461-.528-.301-.467-.319-.528-.209-.541-.16-.608-.068-.664v-.621l.141-.7.233-.756.221-.602.307-.614.375-.541.461-.621.467-.534.535-.534.608-.448.608-.461.682-.381.836-.455.922-.381,1.137-.473,2.531-.836,3.207-.915.762-.227.903-.221,1.456-.307,1.45-.369,1.45-.405,1.45-.301,1.376-.375,1.45-.467,1.45-.381,1.377-.46Z"/>
  <path id="path1638" d="M248.661,113.667v-2.802h7.025v8.98h-2.6v-.981l-.99.457-1.065.386-.549.138-.6.101-.533.054h-.537l-1.3-.054-1.137-.176-.533-.151-.537-.226-.461-.218-.457-.235-.466-.298-.449-.323-.386-.285-.386-.394-.289-.466-.319-.373-.293-.461-.231-.524-.47-.998-.31-1.149-.147-1.057-.067-1.225.067-1.22.231-1.208.315-1.099.466-1.069.281-.457.319-.445.306-.445.377-.386.386-.398.466-.377.449-.306.533-.226.759-.373.919-.323,1.065-.151h1.837l.688.097.604.054.625.159.6.164.528.201.466.331.461.293.373.31.382.398.306.352.306.478.239.461.226.44.143.537.164.617-2.751.537-.231-.629-.306-.524-.386-.445-.457-.403-.6-.298-.621-.226-.688-.143h-1.367l-.461.075-.533.147-.457.147-.461.231-.377.226-.382.298-.315.323-.373.466-.239.449-.218.466-.168.52-.147.612-.067.541-.067.604v1.296l.067.625.067.52.147.604.168.541.218.461.315.466.298.449.315.302.382.306.377.226.461.235.457.151.533.147.461.075h.524l.843-.075.688-.063.621-.084.6-.151.457-.235.457-.226.398-.306.445-.302v-2.063h-4.425ZM221.563,111.536v-.533l.08-.621.151-.537.071-.612.457-1.208.545-1.141.298-.554.315-.524.373-.445.457-.453.466-.398.457-.377.528-.298.457-.31.843-.231.839-.243.83-.151h1.929l.822.151.843.243.772.281.667.331.692.445.629.457.591.633.474.591.449.608.386.684.386.763.226.868.147.835.159.809v1.782l-.159.826-.147.839-.226.768-.386.763-.386.696-.39.675-.533.612-.533.528-.688.47-.6.457-.759.373-.772.226-.843.226-.822.155h-1.774l-.839-.155-.835-.226-.751-.226-.776-.373-.684-.377-.612-.549-.537-.528-.52-.612-.466-.612-.386-.684-.31-.759-.222-.768-.226-.822-.08-.864-.08-.906ZM224.931,111.465l.071,1.065.231.986.147.533.226.466.222.466.315.369.319.382.373.386.377.293.457.252.466.21.445.164.617.063.537.075.612-.075.545-.063.524-.164.453-.21.457-.252.394-.293.293-.386.382-.382.235-.453.226-.453.214-.47.159-.457.226-1.074.092-1.057-.092-1.078-.226-.986-.159-.528-.214-.461-.226-.377-.235-.461-.298-.382-.377-.323-.394-.298-.457-.226-.453-.231-.524-.147-.545-.08-.612-.067-.612.067-.541.08-.533.147-.453.231-.382.226-.461.298-.289.39-.319.398-.315.377-.222.449-.226.453-.147.466-.231,1.061-.071,1.082ZM174.392,119.769v-16.642h2.831l7.633,11.16v-11.16h3.057v16.642h-2.99l-7.478-10.812v10.812h-3.053ZM156.542,119.769v-16.642h3.288v6.576h7.394v-6.576h3.2v16.642h-3.2v-7.239h-7.394v7.239h-3.288ZM123.958,119.769v-16.642h11.97v2.839h-8.699v3.657h8.09v2.818h-8.09v4.509h9.013v2.818h-12.285ZM262.396,119.769v-7.013l-5.876-9.63h3.817l3.741,6.576,3.741-6.576h3.741l-5.884,9.709v6.933h-3.28ZM210.037,119.769v-16.474h3.292v13.656h7.323v2.818h-10.615ZM191.109,111.536v-.533l.075-.621.08-.537.155-.612.386-1.208.533-1.141.377-.554.306-.524.382-.445.466-.453.361-.398.549-.377.457-.298.528-.31.768-.231.839-.243.923-.151h1.896l.843.151.826.243.772.281.696.331.675.445.625.457.596.633.466.591.445.608.394.684.298.763.319.868.143.835.164.809v1.782l-.164.826-.143.839-.319.768-.298.763-.394.696-.445.675-.466.612-.596.528-.625.47-.675.457-.696.373-.772.226-.826.226-.843.155h-1.749l-.919-.155-.755-.226-.768-.226-.763-.373-.696-.377-.604-.549-.533-.528-.537-.612-.449-.612-.394-.684-.289-.759-.315-.768-.155-.822-.155-.864v-.906ZM194.469,111.465l.071,1.065.239.986.151.533.231.466.214.466.331.369.293.382.361.386.407.293.377.252.533.21.453.164.621.063.524.075.608-.075.537-.063.533-.164.461-.21.445-.252.403-.293.298-.386.306-.382.31-.453.218-.453.235-.47.147-.457.226-1.074.08-1.057-.08-1.078-.226-.986-.147-.528-.235-.461-.218-.377-.222-.461-.394-.382-.298-.323-.403-.298-.445-.226-.461-.231-.533-.147-.537-.08-.608-.067-.612.067-.533.08-.537.147-.449.231-.461.226-.382.298-.302.39-.386.398-.239.377-.214.449-.231.453-.151.466-.239,1.061-.071,1.082ZM149.965,113.667l3.359.99-.151.692-.293.621-.235.524-.31.541-.386.528-.373.365-.386.39-.457.394-.457.306-.533.302-.533.239-.537.147-.608.138-.608.101-.6.054h-1.615l-.772-.054-.755-.239-.768-.235-.688-.298-.675-.386-.629-.47-.52-.512-.528-.633-.461-.679-.39-.763-.373-.751-.235-.851-.159-.919-.151-.826v-.919l.075-.864.075-.898.159-.847.31-.83.298-.768.39-.768.461-.684.528-.591.608-.558.608-.457.679-.365.688-.39.776-.235.843-.159.83-.151h1.673l.688.097.772.13.608.248.684.201.537.331.617.373.44.377.629.604.453.705.373.822.382.914-3.506.851-.159-.6-.302-.541-.373-.528-.461-.394-.533-.289-.533-.235-.6-.159-.705-.067-.453.067h-.457l-.466.159-.377.142-.386.155-.373.226-.302.243-.319.377-.377.466-.31.449-.226.528-.218.625-.159.524-.142.604-.075.612v1.208l.075.629.142.549.159.587.218.549.226.453.31.524.377.394.319.302.302.293.373.252.386.138.377.151.39.147.453.075h.449l.692-.075.621-.147.608-.222.533-.39.461-.524.373-.612.302-.688.306-.846ZM112.646,119.769v-13.803h-4.735v-2.839h12.834v2.839h-4.811v13.803h-3.288Z"/>
</svg>