<?xml version="1.0" encoding="UTF-8"?>
<svg id="Layer_1" data-name="Layer 1" xmlns="http://www.w3.org/2000/svg" viewBox="0 0 939.948 120">
  <defs>
    <style>
      .cls-1 {
        fill: #007db8;
      }

      .cls-2 {
        fill: gray;
      }
    </style>
  </defs>
  <path class="cls-2" d="M367.102,11.188v-3.799l-1.632-1.084h-65.013l-1.084,1.084v3.799l1.084,1.084h27.676l1.084,1.084v79.112l1.084,1.084h4.883l1.084-1.084V13.877l1.084-1.084h28.198l1.632-1.619-.078.013ZM381.723,30.117c-17.363,0-27.676,12.454-27.676,30.287v2.728c0,17.363,8.681,32.507,28.721,32.507,17.363,0,23.89-11.384,24.935-18.93l-1.071-1.07h-4.896l-1.071,1.07c-2.715,7.585-7.611,12.467-17.363,12.467-16.319,0-21.149-15.144-21.149-22.715l1.097-1.07h45.039l1.097-1.097v-3.799c0-17.885-9.752-30.287-27.676-30.287l.013-.091ZM381.723,36.619c7.585,0,12.585,3.12,15.666,7.324,3.12,4.204,4.334,9.478,4.334,13.838l-1.071,1.097h-37.99l-1.097-1.097c0-4.334,1.218-9.621,4.334-13.838,3.12-4.204,8.146-7.324,15.796-7.324h.026ZM421.802,62.598c0-17.363,8.668-26.501,21.149-26.501s17.363,7.585,18.93,15.144l1.084,1.084h5.418l1.084-1.084c-1.084-12.467-11.384-21.149-26.501-21.149-16.319,0-28.721,10.3-28.721,32.507,0,22.715,12.467,32.507,28.721,32.507,15.144,0,24.935-8.668,26.501-21.149l-1.084-1.084h-4.883l-1.084,1.084c-1.084,7.585-6.501,15.144-18.93,15.144s-21.671-8.668-21.671-26.501h-.013ZM530.157,93.016v-37.99c0-16.319-8.668-24.935-22.715-24.935-8.668,0-16.319,3.799-20.104,10.3h-1.084V7.885l-1.632-1.619h-4.883l-1.084,1.084v85.64l1.084,1.084h4.883l1.084-1.084v-34.204c0-14.099,6.501-22.715,20.104-22.715,10.3,0,16.319,6.501,16.319,18.93v37.99l1.084,1.084h4.883l2.167-1.084-.104.026ZM594.125,93.016v-37.99c0-16.319-8.668-24.935-22.715-24.935-8.668,0-16.319,3.799-20.104,10.3h-1.084l-1.084-7.585-1.084-1.084h-3.799l-1.084,1.084v60.183l1.084,1.084h4.883l1.084-1.084v-34.204c0-14.099,6.501-22.715,20.104-22.715,10.3,0,16.319,6.501,16.319,18.93v37.99l1.084,1.084h5.418l1.084-1.084-.104.026ZM630.418,30.614c-16.319,0-28.721,11.397-28.721,32.507s12.48,32.507,28.721,32.507,28.721-11.371,28.721-32.507-12.48-32.507-28.721-32.507ZM630.418,36.58c6.24,0,11.514,2.585,15.274,7.193,3.721,4.608,5.888,11.253,5.888,19.321,0,8.133-2.167,14.752-5.888,19.321-3.721,4.608-9.008,7.167-15.274,7.167s-11.514-2.559-15.274-7.167c-3.721-4.608-5.888-11.253-5.888-19.321,0-8.407,2.167-15.013,5.888-19.582,3.721-4.543,9.008-6.984,15.274-6.984v.052ZM675.979,92.977V7.337l-1.632-1.084h-4.883l-1.084,1.084v85.64l1.084,1.084h4.883l1.632-1.084ZM713.447,30.574c-16.319,0-28.721,11.397-28.721,32.507s12.48,32.507,28.721,32.507,28.721-11.371,28.721-32.507-12.454-32.507-28.721-32.507ZM713.447,36.54c6.24,0,11.501,2.585,15.274,7.193,3.721,4.608,5.914,11.253,5.914,19.321,0,8.133-2.193,14.752-5.914,19.321-3.721,4.608-8.995,7.167-15.274,7.167-6.24,0-11.514-2.559-15.274-7.167-3.747-4.608-5.94-11.253-5.94-19.321,0-8.407,2.193-15.013,5.914-19.582,3.721-4.543,9.008-6.984,15.274-6.984l.026.052ZM775.196,30.039c-17.363,0-26.632,14.099-26.632,32.507,0,18.93,8.681,32.507,26.632,32.507,11.384,0,17.363-4.883,20.104-10.3v.535c0,16.319-3.786,28.721-18.93,28.721-11.384,0-15.144-4.869-16.319-11.371l-1.097-1.097h-4.869l-1.097,1.097c1.084,10.3,8.695,17.363,23.89,17.363,16.319,0,26.632-10.3,26.632-35.248v-52.089l-1.097-1.07h-3.799l-1.071,1.07-1.097,7.598h-1.071c-2.715-4.883-8.681-10.3-20.104-10.3l-.078.078ZM775.196,36.005c6.24,0,11.253,2.154,14.752,6.554,3.46,4.399,5.352,11.044,5.352,19.974s-1.893,15.535-5.352,19.974c-3.46,4.399-8.473,6.58-14.752,6.58-6.24,0-11.253-2.18-14.752-6.58-3.46-4.399-5.326-11.044-5.326-19.974,0-8.668,1.88-15.274,5.326-19.843,3.46-4.478,8.473-6.762,14.752-6.762v.078ZM822.846,20.339v-7.585l-1.084-1.084h-4.883l-1.632,1.084v7.585l1.084,1.084h4.883l1.632-1.084ZM822.846,92.924v-60.183l-1.084-1.084h-4.883l-1.632,1.084v60.183l1.084,1.084h4.883l1.632-1.084ZM859.138,30c-17.363,0-27.676,12.454-27.676,30.287v2.728c0,17.363,8.681,32.507,28.721,32.507,17.363,0,23.89-11.384,24.935-18.93l-1.097-1.07h-4.869l-1.097,1.07c-2.715,7.585-7.585,12.467-17.363,12.467-16.319,0-21.149-15.144-21.149-22.715l1.097-1.07h45.039l1.097-1.097v-3.799c0-17.363-10.313-30.287-27.676-30.287l.039-.091ZM859.138,36.501c7.585,0,12.611,3.12,15.796,7.324,3.12,4.204,4.334,9.478,4.334,13.838l-1.097,1.097h-37.99l-1.071-1.097c0-4.334,1.218-9.621,4.334-13.838,3.12-4.204,8.12-7.324,15.666-7.324h.026ZM939.948,77.755c0-11.384-6.501-16.319-18.929-18.93-12.467-2.715-20.104-3.799-20.104-12.467,0-6.501,4.883-10.3,14.099-10.3,11.384,0,15.144,4.883,15.144,11.384l1.084,1.084h4.883l1.085-1.084c0-12.467-10.3-17.363-22.715-17.363-14.099,0-21.149,7.585-21.149,16.319,0,10.3,7.585,15.144,20.104,17.363,12.467,2.715,18.929,3.799,18.929,14.099,0,6.501-3.799,11.384-16.319,11.384-11.384,0-16.319-6.501-16.319-14.099l-1.085-1.084h-4.883l-1.085,1.084c0,11.384,8.668,20.104,23.89,20.104,15.666.548,23.368-7.05,23.368-17.363v-.131Z"/>
  <path class="cls-1" d="M299.217,75.587v17.885h-56.397V4.961h20.496v70.496h35.901v.131ZM128.198,0l-50,38.512C73.068,19.321,56.397,5.222,35.901,5.222H0v88.512h35.901c20.496,0,38.512-14.099,42.298-33.29l50,38.512,50-38.512v33.29h56.397v-18.016h-37.206V5.222h-20.496v33.29l-47.389,38.512-10.248-8.982,23.107-18.016,24.413-19.191-14.099-11.527-47.389,37.206-10.248-8.982,47.389-35.901L128.329.104h-.025l-.106-.104ZM19.191,23.107h15.405c3.198,0,6.345.718,9.23,2.037,2.885,1.319,5.535,3.251,7.781,5.666,2.245,2.402,4.073,5.274,5.352,8.512,1.282,3.251,1.984,6.867,1.984,10.705,0,3.525-.628,6.958-1.815,10.144-1.183,3.185-2.911,6.11-5.078,8.59s-4.752,4.517-7.702,5.94c-2.95,1.423-6.24,2.219-9.765,2.219h-15.405V23.133l.013-.026Z"/>
</svg>