<?xml version="1.0" encoding="UTF-8"?>
<svg id="Layer_1" data-name="Layer 1" xmlns="http://www.w3.org/2000/svg" xmlns:xlink="http://www.w3.org/1999/xlink" viewBox="0 0 303.755 120">
  <defs>
    <style>
      .cls-1 {
        fill: none;
      }

      .cls-2 {
        fill: #0094a1;
      }

      .cls-3 {
        clip-path: url(#clippath);
      }
    </style>
    <clipPath id="clippath">
      <rect class="cls-1" width="303.755" height="120"/>
    </clipPath>
  </defs>
  <g class="cls-3">
    <path class="cls-2" d="M292.072,4.673v-.334c0-.167-.167-.167-.334-.334-.167,0-.334-.167-.334-.167h-1.001v1.669h1.001c.167,0,.334-.167.501-.167s.167-.167.167-.334v-.334M294.743,9.013h-2.003l-1.836-2.17h-.501v2.17h-1.502V3.004h3.338c.334,0,.501.167.834.334.334.167.501.334.668.501.167.167.167.501.167.834,0,.501-.167.834-.334,1.168-.167.334-.501.501-1.001.668l2.17,2.503ZM296.078,6.175c0-1.335-.501-2.503-1.335-3.338-1.001-1.001-2.003-1.502-3.338-1.502s-2.503.501-3.338,1.502c-1.001,1.001-1.335,2.003-1.335,3.338s.501,2.503,1.335,3.338c1.001,1.001,2.003,1.502,3.338,1.502s2.503-.501,3.338-1.502c.835-1.001,1.335-2.003,1.335-3.338M297.413,6.175c0,1.669-.668,3.171-1.836,4.339-1.168,1.168-2.67,1.836-4.339,1.836s-3.171-.668-4.339-1.836c-1.168-1.168-1.836-2.67-1.836-4.339s.668-3.171,1.836-4.339C288.067.668,289.569,0,291.238,0s3.171.668,4.339,1.836c1.335,1.168,1.836,2.67,1.836,4.339"/>
  </g>
  <rect class="cls-1" width="303.755" height="120"/>
  <g>
    <path class="cls-2" d="M32.545,63.421c0,19.861,5.007,27.038,26.036,27.038,7.844,0,14.186-.668,18.86-3.171,4.339-2.503,7.01-6.843,7.01-14.687h-16.523c-.167,5.675-4.006,6.342-9.346,6.342-7.677,0-9.179-3.171-9.179-12.684v-.334h35.049v-2.503c0-21.697-5.841-27.204-25.869-27.204-21.363,0-26.036,6.676-26.036,27.204ZM58.248,47.733c6.008,0,9.346.668,9.346,8.846v.334h-18.192c.167-7.01,1.669-9.179,8.846-9.179Z"/>
    <path class="cls-2" d="M197.274,47.399c-7.51-.167-8.846,2.17-9.013,9.513h18.526v-.501c0-8.512-3.338-9.013-9.513-9.013Z"/>
    <path class="cls-2" d="M296.579,25.035c-6.676-11.015-19.527-18.86-34.715-18.86H41.892c-15.021,0-27.872,7.844-34.715,18.86C1.335,35.382,0,52.072,0,63.088s1.335,27.872,7.177,38.053c6.676,11.015,19.527,18.86,34.715,18.86h219.972c15.021,0,27.872-7.844,34.715-18.86,5.841-10.181,7.177-27.038,7.177-38.053s-1.335-27.872-7.177-38.053ZM158.053,109.986H44.729c-8.846,0-19.026-4.339-24.367-10.014-8.512-9.179-10.348-23.366-10.348-36.885s1.836-27.705,10.348-36.885c5.341-5.675,15.688-10.014,24.367-10.014h113.324v93.797ZM223.31,65.424h-35.049v.501c0,9.513,1.502,12.851,9.346,12.851,5.174,0,9.179-.501,9.513-6.342h16.189c-.167,7.51-2.67,11.85-7.01,14.353-4.506,2.503-10.848,3.171-18.693,3.171-20.862,0-25.869-7.01-25.869-26.871,0-20.529,4.506-27.038,25.869-27.038,19.861,0,25.702,5.341,25.702,27.038v2.337ZM275.216,48.401h-12.35v41.558h-16.857v-41.558h-12.35v-12.184h41.558v12.184Z"/>
    <path class="cls-2" d="M121.502,79.944c-4.339,0-8.846-.167-9.179-6.008h-16.69c.167,11.683,5.675,15.522,16.022,16.356,3.171.167,6.509.167,10.014.167,14.186,0,26.036-2.337,26.036-17.691,0-14.687-7.677-15.688-26.036-16.189-9.179-.167-9.68-2.17-9.68-5.174,0-3.505.334-4.673,9.68-4.673,3.338,0,6.843.334,7.51,4.506h15.855v-2.17c0-12.684-13.352-12.851-23.366-12.851-15.188,0-26.036.334-26.036,17.357,0,10.682,3.672,15.522,26.036,15.522,2.003,0,5.174-.167,7.01.668,1.669.834,2.503,2.337,2.503,5.007,0,4.673-1.669,5.174-9.68,5.174Z"/>
  </g>
  <rect class="cls-1" width="303.755" height="120"/>
</svg>