<?xml version="1.0" encoding="UTF-8"?>
<svg id="Layer_1" data-name="Layer 1" xmlns="http://www.w3.org/2000/svg" viewBox="0 0 946.276 120">
  <defs>
    <style>
      .cls-1 {
        fill: #6c6e71;
      }

      .cls-2 {
        fill: #d71820;
      }
    </style>
  </defs>
  <path id="path4413" class="cls-1" d="M739.693.055c-22.613-.751-47.065,12.266-58.661,36.764-7.195,13.826-12.684,29.223-16.334,44.333-.33,1.337-.63,2.672-.915,4.001-.368,2.148-.395,4.905-.199,7.722.894,11.896,11.458,26.276,28.867,27.095h20.653c22.605.751,47.046-12.267,58.649-36.764,7.195-13.834,12.684-29.242,16.334-44.344.323-1.345.637-2.68.915-4.002.376-2.155.403-4.905.199-7.721-.894-11.904-11.459-26.272-28.867-27.083h-20.641ZM351.975,1.158l9.247,117.65h18.54c-.03-.006-.076,0-.106,0h1.091c3.687-.114,6.982-2.039,8.942-4.975h.012L465.295,1.158h-19.55l-54.155,80.874-6.348-80.874h-33.267ZM478.801,1.158l-43.382,117.65h33.302L512.092,1.158s-33.291,0-33.291,0ZM556.941,1.158c-29.912.366-43.132,33.643-26.79,54.964,8.291,10.124,20.129,20.621,26.813,31.706,4.236,5.993-.294,15.99-8.39,16.088h-52.817l-5.468,14.891h66.875c26.21-.078,43.944-30.94,26.356-54.612-8.118-11.994-20.993-20.179-28.609-31.894-4.529-6.113.024-16.147,8.202-16.252h49.156l5.48-14.891h-60.808ZM640.795,1.158l-43.359,117.65h33.291L674.098,1.158h-33.302ZM820.544,1.158l-43.558,117.65h17.156l30.017-81.085.153,1.455,26.966,72.824c1.615,3.83,5.325,6.573,9.681,6.806h15.689L920.216,1.158h-17.156l-29.442,79.512L842.276,1.158h-21.732ZM747.297,12.223c6.278.481,11.265,5.762,11.265,12.169h0c.048,1.577-.224,3.133-.81,4.553l-22.002,59.916c-4.438,11.498-14.756,18.544-27.013,18.904h-3.25c-6.278-.481-11.265-5.762-11.265-12.169h0c-.048-1.577.228-3.152.821-4.564l21.991-59.916c4.446-11.498,14.765-18.528,27.036-18.881h3.227v-.011Z"/>
  <path id="path4417" class="cls-2" d="M43.382,1.158L0,118.807h35.356l20.747-56.267h42.092l-20.747,56.267h27.623c4.671,0,8.685-2.949,10.315-7.064.018-.06.036-.078.06-.108L156.175,1.155h-35.356l-16.698,45.295h-42.092L78.728,1.155h-35.344v.003ZM178.645,1.158l-43.371,117.65h35.344L213.99,1.158h-35.344,0ZM238.045,1.158l-43.371,117.65h35.344l16.628-45.119,8.836-6.782,23.445,45.459.012-.06c.03.06.042.078.06.108,1.923,3.988,6.144,6.617,10.807,6.302-.082,0-.172.06-.27.06h30.017l-37.339-72.402L341.111,1.148h-26.414l-57.616,44.239L273.391,1.148h-35.344l-.002.01Z"/>
  <path id="path4457" class="cls-1" d="M946.276,11.558c0,6.557-5.144,11.693-11.836,11.693-6.624,0-11.903-5.137-11.903-11.693,0-6.414,5.28-11.558,11.903-11.558,6.691,0,11.836,5.144,11.836,11.558M925.495,11.558c0,5.145,3.8,9.23,9.012,9.23,5.077,0,8.809-4.085,8.809-9.162,0-5.137-3.732-9.297-8.877-9.297s-8.945,4.161-8.945,9.23M932.607,17.619h-2.674V6.06c1.051-.21,2.531-.354,4.438-.354,2.178,0,3.169.354,4.01.848.638.493,1.127,1.412,1.127,2.538,0,1.269-.984,2.253-2.396,2.674v.144c1.127.421,1.765,1.269,2.118,2.816.353,1.765.563,2.471.841,2.892h-2.884c-.353-.421-.563-1.48-.916-2.817-.21-1.269-.916-1.832-2.396-1.832h-1.269v4.649h0ZM932.675,11.062h1.269c1.479,0,2.681-.487,2.681-1.689,0-1.051-.774-1.757-2.471-1.757-.698,0-1.194.066-1.479.138v3.312-.003Z"/>
</svg>