<?xml version="1.0" encoding="UTF-8"?>
<svg id="Layer_1" data-name="Layer 1" xmlns="http://www.w3.org/2000/svg" viewBox="0 0 468.615 120">
  <defs>
    <style>
      .cls-1 {
        fill: #231916;
      }

      .cls-2 {
        fill: none;
        stroke: #231916;
        stroke-width: 1.015px;
      }

      .cls-3 {
        fill: #b4b5b5;
      }
    </style>
  </defs>
  <path class="cls-3" d="M0,64.478l16.304-1.525c1.016,5.472,3.001,9.504,6.005,12.088,3.018,2.559,7.087,3.835,12.207,3.835,5.415,0,9.495-1.161,12.267-3.426,2.744-2.327,4.104-4.976,4.104-8.017,0-1.963-.583-3.682-1.724-5.056-1.159-1.356-3.171-2.587-6.039-3.561-1.977-.756-6.452-1.956-13.439-3.728-9.009-2.223-15.326-4.997-18.923-8.253-5.11-4.633-7.67-10.267-7.67-16.876,0-4.255,1.176-8.274,3.618-11.935,2.39-3.72,5.876-6.557,10.414-8.52,4.534-1.893,9.959-2.878,16.418-2.878,10.438,0,18.299,2.309,23.603,6.9,5.29,4.681,8.044,10.812,8.305,18.523l-16.88.562c-.753-4.203-2.244-7.302-4.635-9.206-2.348-1.883-5.897-2.823-10.591-2.823-4.874,0-8.7.999-11.448,3.048-1.797,1.304-2.682,2.993-2.682,5.146,0,2.004.822,3.658,2.501,5.073,2.102,1.824,7.267,3.682,15.437,5.593,8.183,1.942,14.216,3.956,18.115,6.04,3.923,2.084,6.994,4.927,9.214,8.541,2.189,3.537,3.33,8.062,3.33,13.357,0,4.789-1.339,9.314-3.993,13.471-2.65,4.164-6.411,7.313-11.264,9.355-4.857,1.991-10.9,3.055-18.146,3.055-10.546,0-18.663-2.465-24.307-7.386-5.637-4.903-9.009-12.043-10.101-21.398Z"/>
  <path class="cls-3" d="M65.674,31.079h16.932l14.466,43.042,14.098-43.042h16.502l-21.213,58.292-3.882,10.638c-1.405,3.54-2.73,6.231-3.996,8.093-1.263,1.9-2.73,3.422-4.374,4.567-1.679,1.131-3.698,2.042-6.067,2.691-2.422.652-5.131,1.019-8.17,1.019-3.056,0-6.078-.368-9.05-1.019l-1.318-12.594c2.473.531,4.732.784,6.733.784,3.688,0,6.425-1.089,8.194-3.26,1.783-2.219,3.143-5.035,4.086-8.412l-22.94-60.799Z"/>
  <path class="cls-3" d="M183.185,91.719h-15.94v-30.871c0-6.495-.33-10.691-1.041-12.625-.697-1.914-1.776-3.408-3.348-4.473-1.54-1.054-3.434-1.588-5.592-1.588-2.803,0-5.287.77-7.531,2.299-2.238,1.512-3.743,3.509-4.565,5.967-.808,2.535-1.238,7.133-1.238,13.926v27.365h-15.905V31.079h14.732v8.884c5.301-6.713,11.968-10.035,19.995-10.035,3.563,0,6.796.659,9.737,1.879,2.935,1.307,5.18,2.889,6.66,4.889,1.492,1.98,2.539,4.216,3.139,6.703.59,2.462.895,6.096.895,10.746v37.574Z"/>
  <path class="cls-3" d="M183.275,60.761c0-5.378,1.329-10.479,3.951-15.493,2.619-4.969,6.338-8.776,11.156-11.418,4.815-2.635,10.192-3.922,16.12-3.922,9.189,0,16.689,2.972,22.534,8.932,5.866,5.954,8.808,13.482,8.808,22.56,0,9.172-2.969,16.741-8.884,22.785-5.911,6.002-13.377,9.057-22.354,9.057-5.544,0-10.834-1.283-15.891-3.786-5.044-2.514-8.87-6.19-11.489-11.058-2.623-4.82-3.951-10.711-3.951-17.656ZM199.6,61.565c0,6.054,1.415,10.677,4.298,13.818,2.866,3.232,6.383,4.844,10.587,4.844s7.733-1.612,10.594-4.844c2.82-3.141,4.236-7.819,4.236-13.898,0-5.985-1.415-10.559-4.236-13.731-2.862-3.173-6.383-4.823-10.594-4.823s-7.722,1.65-10.587,4.823c-2.883,3.173-4.298,7.795-4.298,13.811Z"/>
  <path class="cls-1" d="M265.417,0v78.275c0,3.731.277,6.207.794,7.382.548,1.241,1.367,2.153,2.473,2.771,1.135.617,3.219.943,6.244.943v2.347h-28.941v-2.347c2.713,0,4.558-.274,5.592-.87.957-.583,1.735-1.463,2.3-2.778.562-1.279.815-3.762.815-7.448V24.858c0-6.717-.128-10.832-.42-12.382-.274-1.54-.76-2.576-1.401-3.124-.659-.576-1.475-.902-2.47-.902-1.079,0-2.47.396-4.131,1.054l-1.093-2.296,17.373-7.209h2.865Z"/>
  <path class="cls-1" d="M303.648,30.892c8.978,0,16.158,3.398,21.594,10.194,4.603,5.784,6.907,12.438,6.907,19.945,0,5.309-1.249,10.652-3.795,16.041-2.553,5.406-6.036,9.491-10.518,12.237-4.464,2.75-9.401,4.123-14.871,4.123-8.946,0-16.03-3.547-21.275-10.61-4.43-5.961-6.657-12.663-6.657-20.115,0-5.419,1.343-10.76,4.021-16.086,2.72-5.388,6.251-9.296,10.657-11.924,4.384-2.514,9.033-3.804,13.938-3.804ZM301.668,35.23c-2.29,0-4.569.593-6.872,1.983-2.3,1.363-4.173,3.7-5.592,7.053-1.415,3.426-2.13,7.75-2.13,13.062,0,8.585,1.738,15.905,5.13,22.168,3.434,6.162,7.923,9.304,13.508,9.304,4.201,0,7.628-1.755,10.316-5.149,2.723-3.423,4.086-9.304,4.086-17.674,0-10.475-2.265-18.648-6.775-24.668-3.063-4.088-6.948-6.079-11.673-6.079Z"/>
  <path class="cls-1" d="M345.099,70.071c-3.59-1.831-6.317-4.237-8.27-7.386-1.908-3.194-2.869-6.647-2.869-10.441,0-5.846,2.168-10.895,6.556-15.032,4.395-4.206,10.043-6.321,16.894-6.321,5.612,0,10.466,1.324,14.587,4.085h12.485c1.859,0,2.921.052,3.247.166.274.135.465.326.617.541.243.402.399,1.085.399,2.063,0,1.12-.125,1.952-.34,2.341-.132.212-.347.42-.676.499-.326.132-1.387.187-3.264.187h-7.698c2.442,3.103,3.649,7.077,3.649,11.9,0,5.486-2.14,10.215-6.317,14.102-4.208,3.915-9.849,5.891-16.883,5.891-2.925,0-5.904-.426-8.96-1.384-1.8,1.692-3.022,3.1-3.625,4.324-.652,1.252-.975,2.278-.975,3.103,0,.784.347,1.463,1.075,2.192.687.662,2.092,1.165,4.153,1.446,1.165.225,4.201.385,8.988.527,8.825.274,14.559.614,17.144,1.054,3.993.551,7.195,2.059,9.571,4.417,2.372,2.389,3.566,5.302,3.566,8.787,0,4.785-2.286,9.342-6.827,13.561-6.647,6.2-15.364,9.304-26.107,9.304-8.26,0-15.239-1.814-20.939-5.545-3.212-2.153-4.801-4.355-4.801-6.689,0-.985.239-2.046.676-3.076.715-1.609,2.192-3.731,4.413-6.564.291-.416,2.466-2.715,6.431-6.931-2.209-1.384-3.788-2.552-4.693-3.644-.916-1.047-1.384-2.264-1.384-3.586,0-1.529.6-3.284,1.794-5.295,1.224-2.053,4.031-4.945,8.384-8.6ZM344.568,91.719c-1.963,2.122-3.427,4.171-4.447,6.092-1.023,1.793-1.495,3.558-1.495,5.094,0,2.115,1.218,3.877,3.705,5.409,4.295,2.622,10.497,3.988,18.587,3.988,7.712,0,13.38-1.366,17.067-4.067,3.684-2.691,5.502-5.565,5.502-8.631,0-2.178-1.093-3.762-3.292-4.705-2.241-.953-6.653-1.498-13.31-1.637-9.668-.284-17.123-.85-22.316-1.543ZM356.335,34.151c-3.174,0-5.79,1.318-7.947,3.842-2.126,2.514-3.185,6.287-3.185,11.512,0,6.727,1.454,11.946,4.35,15.673,2.234,2.805,5.027,4.213,8.419,4.213,3.254,0,5.935-1.245,8.003-3.675,2.092-2.431,3.126-6.224,3.126-11.401,0-6.807-1.446-12.091-4.388-15.923-2.213-2.784-4.978-4.241-8.378-4.241Z"/>
  <path class="cls-1" d="M390.57,32.612h27.623v2.365h-1.332c-1.949,0-3.399.451-4.371,1.248-.964.864-1.433,1.9-1.433,3.121,0,1.706.683,4.005,2.133,6.963l14.4,29.869,13.182-32.636c.729-1.793,1.09-3.513,1.09-5.298,0-.756-.177-1.325-.448-1.699-.347-.458-.892-.871-1.62-1.117-.718-.284-2.022-.451-3.843-.451v-2.365h19.107v2.365c-1.589.166-2.827.534-3.677,1.036-.881.531-1.814,1.474-2.838,2.854-.392.631-1.158,2.243-2.209,4.955l-23.939,58.868c-2.331,5.749-5.384,10.032-9.175,12.954-3.781,2.951-7.42,4.355-10.927,4.355-2.546,0-4.631-.676-6.293-2.185-1.634-1.436-2.452-3.103-2.452-5.021,0-1.779.593-3.176,1.78-4.296,1.186-1.141,2.848-1.64,4.908-1.64,1.433,0,3.4.461,5.856,1.377,1.717.589,2.817.964,3.257.964,1.297,0,2.681-.701,4.239-2.022,1.52-1.311,3.063-3.88,4.6-7.666l4.173-10.281-21.254-44.415c-.655-1.345-1.689-2.989-3.091-4.98-1.082-1.495-1.967-2.51-2.654-3.065-.996-.641-2.595-1.259-4.791-1.792v-2.365Z"/>
  <path class="cls-1" d="M454.943,28.697v-11.824h5.197c1.048,0,1.845.139,2.404.388.569.187.961.551,1.298,1.065.336.579.486,1.169.486,1.779,0,.87-.26,1.571-.822,2.122-.52.589-1.349.974-2.484,1.127.43.198.732.409.93.576.458.409.885.929,1.28,1.536l2.061,3.232h-1.939l-1.561-2.438c-.468-.666-.85-1.252-1.138-1.616-.319-.395-.541-.635-.788-.839-.222-.135-.458-.194-.697-.271-.191-.049-.492-.076-.888-.076h-1.779v5.239h-1.558ZM456.501,22.119h3.33c.704,0,1.27-.049,1.661-.25.413-.08.704-.374.916-.686.236-.336.323-.701.323-1.078,0-.538-.198-.988-.611-1.356-.392-.35-1.034-.53-1.887-.53h-3.733v3.901Z"/>
  <path class="cls-2" d="M468.108,22.344c0,4.719-3.84,8.603-8.547,8.603-4.742,0-8.582-3.884-8.582-8.603,0-4.754,3.84-8.561,8.582-8.561,4.707,0,8.547,3.807,8.547,8.561Z"/>
</svg>